<?xml version="1.0" encoding="UTF-8"?>
<svg width="59px" height="73px" viewBox="0 0 59 73" version="1.1" xmlns="http://www.w3.org/2000/svg" xmlns:xlink="http://www.w3.org/1999/xlink">
    <title>document-table-svgrepo-com</title>
    <g id="1.1-Add-Patient-(Clinic/Aluna-Billing)" stroke="none" stroke-width="1" fill="none" fill-rule="evenodd">
        <g id="1.1-File-Attachment-Interaction-Details" transform="translate(-453.000000, -371.000000)" fill="#037BD6" fill-rule="nonzero">
            <g id="File-Upload-in-progress" transform="translate(86.000000, 105.000000)">
                <g id="document-table-svgrepo-com" transform="translate(367.000000, 266.000000)">
                    <path d="M58.1560873,15.7500397 C58.1462381,15.7002143 58.1323333,15.6527063 58.1166905,15.604619 C58.1085794,15.5826032 58.1056825,15.5594286 58.0969921,15.5374127 C58.0755556,15.4858492 58.047746,15.4371825 58.0187778,15.3890952 C58.0095079,15.3740317 58.0037143,15.3566508 57.9927063,15.3415873 C57.9515714,15.2790159 57.9040635,15.2210794 57.8513413,15.1683571 L43.0172778,0.334293651 C42.9651349,0.280992063 42.9071984,0.233484127 42.844627,0.192349206 C42.8289841,0.181920635 42.8121825,0.175547619 42.7965397,0.166277778 C42.7490317,0.137309524 42.7009444,0.108920635 42.6488016,0.087484127 C42.6267857,0.0782142857 42.6036111,0.0741587302 42.5810159,0.066047619 C42.5335079,0.0498253968 42.486,0.0318650794 42.4361746,0.022015873 C42.3625952,0.00811111111 42.2866984,0 42.2102222,0 L3.42173016,0 C1.5347381,0 0,1.53415873 0,3.42115079 L0,69.5776905 C0,71.4646825 1.5347381,73 3.42173016,73 L54.7644841,73 C56.6514762,73 58.1717302,71.4646825 58.1717302,69.5776905 L58.1717302,15.9754127 C58.1717302,15.8989365 58.1717302,15.823619 58.1560873,15.7500397 Z M55.8907698,69.5776905 C55.8907698,70.2063016 55.394254,70.7190397 54.7650635,70.7190397 L3.42173016,70.7190397 C2.79253968,70.7190397 2.28096032,70.2063016 2.28096032,69.5776905 L2.28096032,3.42115079 C2.28096032,2.79253968 2.79253968,2.28096032 3.42173016,2.28096032 L41.0625,2.28096032 L41.0625,12.1730397 C41.0625,14.898373 43.2872619,17.1092302 46.0120159,17.1092302 L55.8907698,17.1092302 L55.8907698,69.5776905 Z" id="Shape"></path>
                    <path d="M51.3276905,23.9526905 L6.84346032,23.9526905 C6.21311111,23.9526905 5.70269048,24.4636905 5.70269048,25.0934603 L5.70269048,59.3119206 C5.70269048,59.9416905 6.21311111,60.4526905 6.84346032,60.4526905 L51.3276905,60.4526905 C51.9574603,60.4526905 52.4684603,59.9416905 52.4684603,59.3119206 L52.4684603,25.0934603 C52.4684603,24.4636905 51.9574603,23.9526905 51.3276905,23.9526905 Z M11.4059603,58.1717302 L7.98423016,58.1717302 L7.98423016,54.75 L11.4059603,54.75 L11.4059603,58.1717302 Z M11.4059603,52.4684603 L7.98423016,52.4684603 L7.98423016,49.0467302 L11.4059603,49.0467302 L11.4059603,52.4684603 Z M11.4059603,46.7651905 L7.98423016,46.7651905 L7.98423016,43.3434603 L11.4059603,43.3434603 L11.4059603,46.7651905 Z M11.4059603,41.0625 L7.98423016,41.0625 L7.98423016,37.6407698 L11.4059603,37.6407698 L11.4059603,41.0625 Z M11.4059603,35.3592302 L7.98423016,35.3592302 L7.98423016,31.9375 L11.4059603,31.9375 L11.4059603,35.3592302 Z M11.4059603,29.6559603 L7.98423016,29.6559603 L7.98423016,26.2342302 L11.4059603,26.2342302 L11.4059603,29.6559603 Z M26.2342302,58.1717302 L13.6875,58.1717302 L13.6875,54.75 L26.2342302,54.75 L26.2342302,58.1717302 Z M26.2342302,52.4684603 L13.6875,52.4684603 L13.6875,49.0467302 L26.2342302,49.0467302 L26.2342302,52.4684603 Z M26.2342302,46.7651905 L13.6875,46.7651905 L13.6875,43.3434603 L26.2342302,43.3434603 L26.2342302,46.7651905 Z M26.2342302,41.0625 L13.6875,41.0625 L13.6875,37.6407698 L26.2342302,37.6407698 L26.2342302,41.0625 Z M26.2342302,35.3592302 L13.6875,35.3592302 L13.6875,31.9375 L26.2342302,31.9375 L26.2342302,35.3592302 Z M26.2342302,29.6565397 L13.6875,29.6565397 L13.6875,26.2348095 L26.2342302,26.2348095 L26.2342302,29.6565397 Z M38.2108651,58.1717302 L28.5157698,58.1717302 L28.5157698,54.75 L38.2108651,54.75 L38.2108651,58.1717302 Z M38.2108651,52.4684603 L28.5157698,52.4684603 L28.5157698,49.0467302 L38.2108651,49.0467302 L38.2108651,52.4684603 Z M38.2108651,46.7651905 L28.5157698,46.7651905 L28.5157698,43.3434603 L38.2108651,43.3434603 L38.2108651,46.7651905 Z M38.2108651,41.0625 L28.5157698,41.0625 L28.5157698,37.6407698 L38.2108651,37.6407698 L38.2108651,41.0625 Z M38.2108651,35.3592302 L28.5157698,35.3592302 L28.5157698,31.9375 L38.2108651,31.9375 L38.2108651,35.3592302 Z M38.2108651,29.6565397 L28.5157698,29.6565397 L28.5157698,26.2348095 L38.2108651,26.2348095 L38.2108651,29.6565397 Z M50.1875,58.1717302 L40.4924048,58.1717302 L40.4924048,54.75 L50.1875,54.75 L50.1875,58.1717302 Z M50.1875,52.4684603 L40.4924048,52.4684603 L40.4924048,49.0467302 L50.1875,49.0467302 L50.1875,52.4684603 Z M50.1875,46.7651905 L40.4924048,46.7651905 L40.4924048,43.3434603 L50.1875,43.3434603 L50.1875,46.7651905 Z M50.1875,41.0625 L40.4924048,41.0625 L40.4924048,37.6407698 L50.1875,37.6407698 L50.1875,41.0625 Z M50.1875,35.3592302 L40.4924048,35.3592302 L40.4924048,31.9375 L50.1875,31.9375 L50.1875,35.3592302 Z M50.1875,29.6565397 L50.1875,29.6565397 L40.4924048,29.6565397 L40.4924048,26.2348095 L50.1875,26.2348095 L50.1875,29.6565397 Z" id="Shape"></path>
                </g>
            </g>
        </g>
    </g>
</svg>