<?xml version="1.0" encoding="UTF-8"?>
<svg width="245px" height="78px" viewBox="0 0 245 78" version="1.1" xmlns="http://www.w3.org/2000/svg" xmlns:xlink="http://www.w3.org/1999/xlink">
    <defs>
        <polygon id="path-1" points="0 0 76 0 76 78 0 78"></polygon>
    </defs>
    <g stroke="none" stroke-width="1" fill="none" fill-rule="evenodd">
        <g id="Login" transform="translate(-598.000000, -135.000000)">
            <g id="Group-16" transform="translate(598.000000, 135.000000)">
                <path d="M133,55 C126.93491,55 122,50.0659281 122,43.99779 L122,11 L126.403283,11 L126.403283,43.99779 C126.403283,47.6411986 129.363219,50.5988634 133,50.5988634 L133,55 Z" id="Fill-1" fill="#517790"></path>
                <path d="M152.500603,56 C146.710866,56 142,51.0815751 142,45.0326804 L142,31 L146.200964,31 L146.200964,45.0326804 C146.200964,48.664535 149.02652,51.6128204 152.500603,51.6128204 C155.975891,51.6128204 158.801447,48.664535 158.801447,45.0326804 L158.801447,31 L163,31 L163,45.0326804 C163,51.0815751 158.287928,56 152.500603,56" id="Fill-3" fill="#517790"></path>
                <path d="M182.501206,29 C188.288863,29 193,33.9176613 193,39.9646472 L193,54 L188.8,54 L188.8,39.9646472 C188.8,36.3362039 185.970666,33.3851035 182.501206,33.3851035 C179.026923,33.3851035 176.201206,36.3362039 176.201206,39.9646472 L176.201206,54 L172,54 L172,39.9646472 C172,33.9176613 176.711137,29 182.501206,29" id="Fill-5" fill="#517790"></path>
                <path d="M102.501794,29 C95.6068507,29 90,34.6073872 90,41.5005981 C90,48.3926128 95.6068507,54 102.501794,54 C105.698704,54 108.621729,52.7919238 110.835526,50.807569 L110.835526,52.7512559 L115,52.7512559 L115,41.5005981 C115,34.6073872 109.393149,29 102.501794,29 M102.501794,49.8375197 C97.9043678,49.8375197 94.16567,46.0948758 94.16567,41.5005981 C94.16567,36.9051242 97.9043678,33.1660686 102.501794,33.1660686 C107.09324,33.1660686 110.835526,36.9051242 110.835526,41.5005981 C110.835526,46.0948758 107.09324,49.8375197 102.501794,49.8375197" id="Fill-7" fill="#517790"></path>
                <path d="M214.501196,29 C207.606996,29 202,34.6073872 202,41.5005981 C202,48.3926128 207.606996,54 214.501196,54 C217.696478,54 220.621399,52.7919238 222.836922,50.807569 L222.836922,52.7512559 L227,52.7512559 L227,41.5005981 C227,34.6073872 221.3942,29 214.501196,29 M214.501196,49.8375197 C209.905063,49.8375197 206.163078,46.0948758 206.163078,41.5005981 C206.163078,36.9051242 209.905063,33.1660686 214.501196,33.1660686 C219.093741,33.1660686 222.836922,36.9051242 222.836922,41.5005981 C222.836922,46.0948758 219.093741,49.8375197 214.501196,49.8375197" id="Fill-9" fill="#517790"></path>
                <g id="Group-13">
                    <mask id="mask-2" fill="white">
                        <use xlink:href="#path-1"></use>
                    </mask>
                    <g id="Clip-12"></g>
                    <path d="M-0.000120901864,38.9981388 C-0.000120901864,60.5377579 17.0131894,78 37.996917,78 C58.9866897,78 76,60.5377579 76,38.9981388 C76,17.4597604 58.9866897,0 37.996917,0 C17.0131894,0 -0.000120901864,17.4597604 -0.000120901864,38.9981388 Z M37.996917,38.9981388 L37.996917,74.1943653 C19.061267,74.1943653 3.70914829,58.4357869 3.70914829,38.9981388 C3.70914829,19.5604906 19.061267,3.80315299 37.996917,3.80315299 L37.996917,38.9981388 Z M41.7049772,73.9759787 L41.7049772,38.9981388 L41.7049772,4.02153959 C47.5844348,8.25774327 51.9018404,22.3126581 51.9018404,38.9981388 C51.9018404,55.6885827 47.5844348,69.7410159 41.7049772,73.9759787 L41.7049772,73.9759787 Z M47.9495585,72.6619367 C52.4918415,66.4627352 55.6099006,53.71814 55.6099006,38.9981388 C55.6099006,24.2793783 52.4918415,11.5360239 47.9495585,5.33930418 C56.8165012,10.9788899 63.0211849,23.9257409 63.0211849,38.9981388 C63.0211849,54.0717774 56.8165012,67.0173876 47.9495585,72.6619367 L47.9495585,72.6619367 Z M58.7557671,67.0099426 C63.6631738,60.0215714 66.728036,50.0614053 66.728036,38.9981388 C66.728036,27.9373538 63.6631738,17.9734653 58.7557671,10.9863349 C66.983139,17.4138496 72.2883128,27.5713081 72.2883128,38.9981388 C72.2883128,50.4286919 66.983139,60.5811871 58.7557671,67.0099426 L58.7557671,67.0099426 Z" id="Fill-11" fill="#517790" mask="url(#mask-2)"></path>
                </g>
                <path d="M244.732942,31 L245,36 L243.953595,36 L243.782832,32.2691854 L241.737528,34.7691854 L240.88628,34.7691854 L238.839692,32.2691854 L238.694607,36 L237.646919,36 L237.913977,31 L238.961665,31 L241.324101,33.8738686 L243.686537,31 L244.732942,31 Z M231,31.8018497 L231,31.0196773 L236.551724,31.0196773 L236.551724,31.8018497 L234.311262,31.8018497 L234.311262,36 L233.240462,36 L233.240462,31.8018497 L231,31.8018497 Z" id="Fill-14" fill="#517790"></path>
            </g>
        </g>
    </g>
</svg>