<svg xmlns="http://www.w3.org/2000/svg" fill="#037BD6" viewBox="0 0 62.86 62.86">
    <title>Aluna-Logo-white2019</title>
    <g id="Layer_2" data-name="Layer 2">
        <g data-name="Layer 1">
            <path class="cls-1" d="M48.6,54c4.06-5.63,6.59-13.66,6.59-22.57S52.66,14.48,48.6,8.85A28.37,28.37,0,0,1,48.6,54m-8.94,4.56c3.76-5,6.34-15.27,6.34-27.13S43.42,9.3,39.66,4.3c7.33,4.55,12.47,15,12.47,27.13S47,54,39.66,58.56M34.5,59.62V3.24C39.36,6.65,42.93,18,42.93,31.43S39.36,56.2,34.5,59.62M31.43,31.43V59.79a28.36,28.36,0,0,1,0-56.72ZM31.43,0A31.43,31.43,0,1,0,62.86,31.43,31.43,31.43,0,0,0,31.43,0"/>
        </g>
    </g>
</svg>

