<?xml version="1.0" standalone="no"?>
<!DOCTYPE svg PUBLIC "-//W3C//DTD SVG 20010904//EN"
 "http://www.w3.org/TR/2001/REC-SVG-20010904/DTD/svg10.dtd">
<svg version="1.0" xmlns="http://www.w3.org/2000/svg"
 width="700.000000pt" height="700.000000pt" viewBox="0 0 700.000000 700.000000"
 preserveAspectRatio="xMidYMid meet">
<metadata>
Created by potrace 1.14, written by Peter Selinger 2001-2017
</metadata>
<g transform="translate(0.000000,700.000000) scale(0.100000,-0.100000)"
fill="#000000" stroke="none">
<path d="M3278 6995 c-1 -1 -41 -6 -87 -9 -488 -39 -1004 -203 -1446 -459
-103 -60 -266 -165 -315 -204 -8 -6 -51 -40 -95 -74 -598 -466 -1042 -1150
-1229 -1894 -21 -84 -32 -138 -61 -295 -4 -21 -18 -121 -21 -145 -26 -246 -26
-683 0 -822 2 -10 7 -43 10 -74 4 -31 9 -67 11 -80 3 -13 7 -37 9 -54 11 -75
62 -283 103 -415 130 -419 327 -796 600 -1145 62 -78 120 -144 229 -256 126
-130 207 -204 357 -325 210 -170 531 -357 814 -475 257 -107 594 -200 848
-234 22 -2 56 -7 75 -10 193 -27 627 -27 848 1 285 35 701 145 909 240 28 13
55 24 59 24 13 0 321 158 360 184 21 14 42 26 47 26 4 0 13 5 20 10 7 6 64 44
127 86 655 434 1150 1097 1389 1859 33 107 72 252 86 325 14 72 35 192 39 225
3 22 8 60 12 85 3 25 8 59 10 75 8 62 11 534 3 617 -8 84 -17 172 -24 213 -1
11 -6 43 -10 70 -3 28 -8 58 -11 67 -5 18 -11 46 -20 93 -11 66 -65 265 -94
355 -295 892 -920 1622 -1747 2041 -327 165 -718 293 -1023 334 -19 3 -46 7
-60 10 -13 2 -54 7 -90 11 -36 3 -78 8 -95 11 -33 5 -531 13 -537 8z m220
-3493 l-3 -3157 -90 1 c-93 1 -231 10 -275 18 -14 3 -45 7 -70 10 -123 12
-389 73 -535 122 -730 242 -1325 715 -1730 1374 -170 276 -327 679 -389 995
-9 45 -26 143 -32 185 -3 25 -8 56 -10 70 -24 173 -24 674 1 770 2 8 7 37 10
63 3 27 9 67 14 90 5 23 12 58 15 77 8 48 12 68 26 120 7 25 13 52 15 60 35
182 220 625 341 818 179 283 283 414 503 632 353 349 755 594 1236 754 262 88
607 146 898 153 l77 1 -2 -3156z m403 3091 c196 -167 389 -479 529 -857 43
-117 148 -461 164 -538 3 -13 16 -77 30 -143 36 -170 67 -346 81 -460 3 -27 8
-61 10 -75 9 -51 20 -149 30 -260 3 -36 7 -85 10 -110 26 -281 27 -1085 1
-1300 -2 -14 -7 -61 -11 -105 -12 -131 -25 -249 -30 -276 -2 -9 -6 -40 -10
-70 -8 -66 -41 -258 -60 -354 -8 -38 -17 -85 -20 -103 -6 -38 -80 -331 -95
-377 -130 -407 -212 -599 -346 -815 -51 -83 -159 -226 -201 -267 -67 -64 -123
-113 -131 -113 -6 0 -9 1242 -10 3130 0 1722 4 3130 7 3130 4 0 27 -17 52 -37z
m649 -163 c3 -3 25 -20 50 -38 65 -47 245 -215 319 -299 173 -196 318 -415
451 -678 92 -182 100 -201 153 -340 61 -161 155 -471 173 -574 3 -14 10 -46
15 -71 57 -252 93 -616 93 -925 0 -138 -11 -393 -18 -433 -2 -9 -7 -48 -11
-87 -9 -95 -13 -122 -35 -255 -24 -141 -28 -163 -41 -220 -6 -25 -12 -53 -14
-62 -13 -62 -70 -263 -104 -360 -114 -337 -252 -617 -444 -903 -33 -49 -63
-92 -66 -95 -3 -3 -33 -39 -65 -80 -128 -162 -390 -403 -548 -503 -36 -23 -35
-17 6 40 194 272 392 795 501 1328 9 44 18 87 20 96 2 9 6 34 9 55 4 22 13 80
22 129 18 110 21 128 29 185 3 25 8 61 11 81 2 20 7 59 9 85 3 27 7 65 10 84
3 19 7 64 10 100 3 36 7 85 10 110 29 280 35 990 10 1270 -2 25 -6 83 -10 130
-6 83 -8 103 -20 205 -3 28 -8 70 -10 95 -3 25 -7 61 -10 80 -3 19 -7 51 -9
70 -4 35 -55 351 -61 380 -2 8 -11 51 -20 95 -9 44 -18 87 -20 95 -57 275
-195 694 -296 900 -21 45 -39 83 -39 85 0 10 -115 204 -153 260 l-41 59 64
-44 c36 -25 67 -47 70 -50z m1133 -650 c143 -136 387 -419 387 -449 0 -5 4
-11 8 -13 11 -4 40 -47 114 -168 224 -366 382 -807 433 -1205 4 -27 8 -61 10
-74 25 -159 25 -603 0 -751 -2 -14 -6 -43 -10 -65 -14 -97 -28 -174 -40 -225
-8 -30 -16 -66 -18 -80 -3 -14 -15 -59 -27 -100 -125 -433 -311 -792 -589
-1140 -69 -87 -298 -324 -381 -395 -89 -76 -140 -116 -140 -110 0 3 22 38 49
78 262 389 463 898 576 1460 14 70 27 143 30 163 9 70 16 119 20 144 3 14 7
54 10 90 3 36 8 79 10 95 23 187 24 734 1 920 -2 17 -7 62 -11 100 -29 297
-100 636 -197 935 -117 364 -250 637 -483 995 -27 41 101 -65 248 -205z"/>
</g>
</svg>
